<svg width="421" height="408" viewBox="0 0 421 408" fill="none" xmlns="http://www.w3.org/2000/svg">
<path d="M290.312 198.487C317.124 149.835 386.713 149.834 413.524 198.487L515.081 382.782C495.584 393.043 475.018 401.519 453.586 408L351.918 228.294L250.267 407.957C228.838 401.466 208.274 392.983 188.782 382.713L290.312 198.487Z" fill="url(#paint0_radial_65_322)" fill-opacity="0.1"/>
<path d="M212.509 80.1139C266.157 80.4973 299.696 138.636 273.385 185.635L169.241 371.634C148.722 359.084 129.597 344.468 112.114 328.103L211.813 151.196L9.08703 149.762C3.76083 126.818 0.646819 103.019 0 78.6015L212.509 80.1139Z" fill="url(#paint1_radial_65_322)" fill-opacity="0.1"/>
<path d="M704 78.6015C703.353 103.02 700.239 126.818 694.913 149.762L492.196 151.196L591.886 328.103C574.402 344.468 555.279 359.085 534.759 371.634L430.624 185.635C404.313 138.636 437.852 80.4973 491.499 80.1139L704 78.6015Z" fill="url(#paint2_radial_65_322)" fill-opacity="0.1"/>
<path d="M534.029 -234.074C554.573 -221.579 573.733 -207.023 591.25 -190.708L491.216 -13.1962L694.913 -11.7616C700.239 11.1824 703.353 34.9803 704 59.3985L490.528 57.8861C436.879 57.5038 403.34 -0.635559 429.652 -47.6355L534.029 -234.074Z" fill="url(#paint3_radial_65_322)" fill-opacity="0.1"/>
<path d="M273.385 -47.6355C299.696 -0.636139 266.157 57.5027 212.509 57.8861L0 59.3899C0.647399 34.9724 3.76029 11.1731 9.08703 -11.7702L211.813 -13.1962L112.114 -190.111C129.597 -206.476 148.722 -221.094 169.241 -233.642L273.385 -47.6355Z" fill="url(#paint4_radial_65_322)" fill-opacity="0.1"/>
<path d="M453.586 -270C475.017 -263.52 495.585 -255.05 515.081 -244.791L413.524 -60.4865C386.713 -11.8343 317.124 -11.8346 290.312 -60.4865L188.782 -244.721C208.274 -254.991 228.839 -263.475 250.267 -269.965L351.918 -90.2935L453.586 -270Z" fill="url(#paint5_radial_65_322)" fill-opacity="0.1"/>
<path d="M404.824 69C404.824 98.3251 381.176 122.098 352.004 122.098C322.833 122.098 299.184 98.3251 299.184 69C299.184 39.6749 322.833 15.9022 352.004 15.9022C381.176 15.9022 404.824 39.6749 404.824 69Z" fill="url(#paint6_radial_65_322)" fill-opacity="0.1"/>
<defs>
<radialGradient id="paint0_radial_65_322" cx="0" cy="0" r="1" gradientUnits="userSpaceOnUse" gradientTransform="translate(352 69) rotate(90) scale(339 352)">
<stop stop-color="white"/>
<stop offset="1" stop-color="white" stop-opacity="0"/>
</radialGradient>
<radialGradient id="paint1_radial_65_322" cx="0" cy="0" r="1" gradientUnits="userSpaceOnUse" gradientTransform="translate(352 69) rotate(90) scale(339 352)">
<stop stop-color="white"/>
<stop offset="1" stop-color="white" stop-opacity="0"/>
</radialGradient>
<radialGradient id="paint2_radial_65_322" cx="0" cy="0" r="1" gradientUnits="userSpaceOnUse" gradientTransform="translate(352 69) rotate(90) scale(339 352)">
<stop stop-color="white"/>
<stop offset="1" stop-color="white" stop-opacity="0"/>
</radialGradient>
<radialGradient id="paint3_radial_65_322" cx="0" cy="0" r="1" gradientUnits="userSpaceOnUse" gradientTransform="translate(352 69) rotate(90) scale(339 352)">
<stop stop-color="white"/>
<stop offset="1" stop-color="white" stop-opacity="0"/>
</radialGradient>
<radialGradient id="paint4_radial_65_322" cx="0" cy="0" r="1" gradientUnits="userSpaceOnUse" gradientTransform="translate(352 69) rotate(90) scale(339 352)">
<stop stop-color="white"/>
<stop offset="1" stop-color="white" stop-opacity="0"/>
</radialGradient>
<radialGradient id="paint5_radial_65_322" cx="0" cy="0" r="1" gradientUnits="userSpaceOnUse" gradientTransform="translate(352 69) rotate(90) scale(339 352)">
<stop stop-color="white"/>
<stop offset="1" stop-color="white" stop-opacity="0"/>
</radialGradient>
<radialGradient id="paint6_radial_65_322" cx="0" cy="0" r="1" gradientUnits="userSpaceOnUse" gradientTransform="translate(352 69) rotate(90) scale(339 352)">
<stop stop-color="white"/>
<stop offset="1" stop-color="white" stop-opacity="0"/>
</radialGradient>
</defs>
</svg>
