<svg width="9" height="6" viewBox="0 0 9 6" fill="none" xmlns="http://www.w3.org/2000/svg">
<path d="M8.84488 0.146399C8.9442 0.240166 9 0.367324 9 0.499911C9 0.632498 8.9442 0.759656 8.84488 0.853423L3.54687 5.8536C3.44752 5.94734 3.31278 6 3.1723 6C3.03181 6 2.89708 5.94734 2.79773 5.8536L0.148722 3.35351C0.0522141 3.25921 -0.00118708 3.1329 2.00278e-05 3.0018C0.00122714 2.8707 0.0569459 2.74529 0.155175 2.65258C0.253405 2.55987 0.386286 2.50728 0.525198 2.50615C0.66411 2.50501 0.797939 2.55541 0.897861 2.64649L3.1723 4.79306L8.09574 0.146399C8.19509 0.0526596 8.32983 0 8.47031 0C8.6108 0 8.74553 0.0526596 8.84488 0.146399Z" fill="#7D836E"/>
</svg>
