<svg width="1201" height="684" viewBox="0 0 1201 684" fill="none" xmlns="http://www.w3.org/2000/svg">
<path d="M495.263 456.085C541.003 373.205 659.719 373.204 705.459 456.085L878.71 770.04C845.449 787.52 810.365 801.96 773.803 813L600.361 506.863L426.948 812.926C390.391 801.869 355.309 787.418 322.055 769.922L495.263 456.085Z" fill="url(#paint0_radial_409_6720)" fill-opacity="0.03"/>
<path d="M362.534 254.433C454.055 255.086 511.271 354.128 466.385 434.193L288.719 751.048C253.714 729.67 221.088 704.77 191.262 676.892L361.346 375.525L15.5022 373.081C6.41584 333.995 1.10345 293.453 0 251.857L362.534 254.433Z" fill="url(#paint1_radial_409_6720)" fill-opacity="0.03"/>
<path d="M1201 251.857C1199.9 293.454 1194.58 333.995 1185.5 373.081L839.669 375.525L1009.74 676.892C979.911 704.77 947.287 729.671 912.281 751.048L734.63 434.193C689.743 354.128 746.96 255.086 838.481 254.433L1201 251.857Z" fill="url(#paint2_radial_409_6720)" fill-opacity="0.03"/>
<path d="M911.035 -280.799C946.082 -259.513 978.768 -234.716 1008.65 -206.922L837.997 95.4755L1185.5 97.9194C1194.58 137.005 1199.9 177.546 1201 219.143L836.824 216.567C745.301 215.916 688.084 116.873 732.972 36.8068L911.035 -280.799Z" fill="url(#paint3_radial_409_6720)" fill-opacity="0.03"/>
<path d="M466.385 36.8068C511.271 116.872 454.055 215.914 362.534 216.567L0 219.129C1.10444 177.533 6.41493 136.99 15.5022 97.9047L361.346 95.4755L191.262 -205.906C221.088 -233.784 253.715 -258.686 288.719 -280.063L466.385 36.8068Z" fill="url(#paint4_radial_409_6720)" fill-opacity="0.03"/>
<path d="M773.803 -342C810.363 -330.96 845.451 -316.533 878.71 -299.055L705.459 14.9146C659.719 97.7956 541.003 97.795 495.263 14.9146L322.055 -298.937C355.308 -316.432 390.391 -330.884 426.948 -341.941L600.361 -35.8629L773.803 -342Z" fill="url(#paint5_radial_409_6720)" fill-opacity="0.03"/>
<path d="M690.616 235.5C690.616 285.457 650.273 325.954 600.507 325.954C550.741 325.954 510.398 285.457 510.398 235.5C510.398 185.543 550.741 145.046 600.507 145.046C650.273 145.046 690.616 185.543 690.616 235.5Z" fill="url(#paint6_radial_409_6720)" fill-opacity="0.03"/>
<defs>
<radialGradient id="paint0_radial_409_6720" cx="0" cy="0" r="1" gradientUnits="userSpaceOnUse" gradientTransform="translate(600.5 235.5) rotate(90) scale(577.5 600.5)">
<stop stop-color="white"/>
<stop offset="1" stop-color="white" stop-opacity="0"/>
</radialGradient>
<radialGradient id="paint1_radial_409_6720" cx="0" cy="0" r="1" gradientUnits="userSpaceOnUse" gradientTransform="translate(600.5 235.5) rotate(90) scale(577.5 600.5)">
<stop stop-color="white"/>
<stop offset="1" stop-color="white" stop-opacity="0"/>
</radialGradient>
<radialGradient id="paint2_radial_409_6720" cx="0" cy="0" r="1" gradientUnits="userSpaceOnUse" gradientTransform="translate(600.5 235.5) rotate(90) scale(577.5 600.5)">
<stop stop-color="white"/>
<stop offset="1" stop-color="white" stop-opacity="0"/>
</radialGradient>
<radialGradient id="paint3_radial_409_6720" cx="0" cy="0" r="1" gradientUnits="userSpaceOnUse" gradientTransform="translate(600.5 235.5) rotate(90) scale(577.5 600.5)">
<stop stop-color="white"/>
<stop offset="1" stop-color="white" stop-opacity="0"/>
</radialGradient>
<radialGradient id="paint4_radial_409_6720" cx="0" cy="0" r="1" gradientUnits="userSpaceOnUse" gradientTransform="translate(600.5 235.5) rotate(90) scale(577.5 600.5)">
<stop stop-color="white"/>
<stop offset="1" stop-color="white" stop-opacity="0"/>
</radialGradient>
<radialGradient id="paint5_radial_409_6720" cx="0" cy="0" r="1" gradientUnits="userSpaceOnUse" gradientTransform="translate(600.5 235.5) rotate(90) scale(577.5 600.5)">
<stop stop-color="white"/>
<stop offset="1" stop-color="white" stop-opacity="0"/>
</radialGradient>
<radialGradient id="paint6_radial_409_6720" cx="0" cy="0" r="1" gradientUnits="userSpaceOnUse" gradientTransform="translate(600.5 235.5) rotate(90) scale(577.5 600.5)">
<stop stop-color="white"/>
<stop offset="1" stop-color="white" stop-opacity="0"/>
</radialGradient>
</defs>
</svg>
