<svg width="26" height="23" viewBox="0 0 26 23" fill="none" xmlns="http://www.w3.org/2000/svg">
<path d="M12.9999 0C14.1286 0 15.1805 0.55578 15.8246 1.48406L15.9487 1.67448L25.5385 17.798C25.83 18.3063 25.9886 18.8807 25.9994 19.4676C26.0103 20.0544 25.873 20.6343 25.6006 21.1532C25.3281 21.672 24.9294 22.1127 24.4416 22.4341C23.9539 22.7554 23.3932 22.9469 22.8119 22.9905L22.5815 23H3.40528C2.82344 22.9934 2.25274 22.8385 1.74646 22.5497C1.24018 22.2609 0.814815 21.8476 0.510078 21.3485C0.205342 20.8493 0.0311664 20.2806 0.00380909 19.6953C-0.0235482 19.11 0.0968048 18.5273 0.353634 18.0016L0.470642 17.7814L10.0558 1.66972C10.3627 1.16013 10.7948 0.73878 11.3105 0.446312C11.8262 0.153845 12.408 0.000131111 12.9999 0ZM13.0117 15.8641L12.8616 15.8725C12.5743 15.9069 12.3096 16.0462 12.1175 16.264C11.9254 16.4818 11.8193 16.7629 11.8193 17.0542C11.8193 17.3455 11.9254 17.6267 12.1175 17.8445C12.3096 18.0623 12.5743 18.2016 12.8616 18.236L12.9999 18.2443L13.15 18.236C13.4372 18.2016 13.702 18.0623 13.8941 17.8445C14.0862 17.6267 14.1923 17.3455 14.1923 17.0542C14.1923 16.7629 14.0862 16.4818 13.8941 16.264C13.702 16.0462 13.4372 15.9069 13.15 15.8725L13.0117 15.8641ZM12.9999 7.53337C12.7104 7.53341 12.431 7.64043 12.2147 7.83413C11.9983 8.02783 11.8601 8.29474 11.8262 8.58424L11.818 8.72348V13.4839L11.8262 13.6231C11.8604 13.9124 11.9988 14.179 12.215 14.3724C12.4313 14.5659 12.7106 14.6727 12.9999 14.6727C13.2891 14.6727 13.5684 14.5659 13.7847 14.3724C14.001 14.179 14.1393 13.9124 14.1735 13.6231L14.1818 13.4839V8.72348L14.1735 8.58424C14.1396 8.29474 14.0014 8.02783 13.7851 7.83413C13.5688 7.64043 13.2894 7.53341 12.9999 7.53337Z" fill="#E9B54C"/>
</svg>
