<svg width="32" height="28" viewBox="0 0 32 28" fill="none" xmlns="http://www.w3.org/2000/svg">
<path d="M10 0C11.0609 0 12.0783 0.421375 12.8284 1.17143C13.5786 1.92148 14 2.93877 14 3.9995V15.998C14 22.2572 10.7 26.3827 4.486 27.9365C4.23053 28.0025 3.96453 28.0172 3.70334 27.9799C3.44214 27.9426 3.19091 27.854 2.96412 27.7192C2.73732 27.5844 2.53945 27.406 2.38189 27.1944C2.22434 26.9828 2.11021 26.7421 2.0461 26.4862C1.98198 26.2303 1.96914 25.9642 2.00831 25.7033C2.04748 25.4425 2.1379 25.1919 2.27434 24.9661C2.41079 24.7403 2.59057 24.5437 2.80332 24.3877C3.01608 24.2317 3.25761 24.1193 3.514 24.057C7.968 22.9432 10 20.4035 10 15.998V13.9983H4C2.99085 13.9986 2.01887 13.6175 1.2789 12.9314C0.538941 12.2453 0.0856866 11.3049 0.0100002 10.2987L0 9.99876V3.9995C0 2.93877 0.421427 1.92148 1.17157 1.17143C1.92172 0.421375 2.93913 0 4 0H10Z" fill="#DFD3C3"/>
<path d="M28 0C29.0609 0 30.0783 0.421375 30.8284 1.17143C31.5786 1.92148 32 2.93877 32 3.9995V15.998C32 22.2572 28.7 26.3827 22.486 27.9365C22.2305 28.0025 21.9645 28.0172 21.7033 27.9799C21.4421 27.9426 21.1909 27.854 20.9641 27.7192C20.7373 27.5844 20.5394 27.406 20.3819 27.1944C20.2243 26.9828 20.1102 26.7421 20.0461 26.4862C19.982 26.2303 19.9691 25.9642 20.0083 25.7033C20.0475 25.4425 20.1379 25.1919 20.2743 24.9661C20.4108 24.7403 20.5906 24.5437 20.8033 24.3877C21.0161 24.2317 21.2576 24.1193 21.514 24.057C25.968 22.9432 28 20.4035 28 15.998V13.9983H22C20.9908 13.9986 20.0189 13.6175 19.2789 12.9314C18.5389 12.2453 18.0857 11.3049 18.01 10.2987L18 9.99876V3.9995C18 2.93877 18.4214 1.92148 19.1716 1.17143C19.9217 0.421375 20.9391 0 22 0H28Z" fill="#DFD3C3"/>
</svg>
